<svg width="12" height="14" viewBox="0 0 12 14" fill="none" xmlns="http://www.w3.org/2000/svg">
<path d="M5.99984 13.667C6.73317 13.667 7.33317 13.067 7.33317 12.3337H4.6665C4.6665 13.067 5.2665 13.667 5.99984 13.667ZM9.99984 9.66699V6.33366C9.99984 4.28699 8.91317 2.57366 6.99984 2.12033V1.66699C6.99984 1.11366 6.55317 0.666992 5.99984 0.666992C5.4465 0.666992 4.99984 1.11366 4.99984 1.66699V2.12033C3.09317 2.57366 1.99984 4.28033 1.99984 6.33366V9.66699L0.666504 11.0003V11.667H11.3332V11.0003L9.99984 9.66699ZM8.6665 10.3337H3.33317V6.33366C3.33317 4.68033 4.33984 3.33366 5.99984 3.33366C7.65984 3.33366 8.6665 4.68033 8.6665 6.33366V10.3337Z" fill="#9E9BA1"/>
</svg>
