<svg width="14" height="17" viewBox="0 0 14 17" fill="none" xmlns="http://www.w3.org/2000/svg">
<path d="M7.00016 16.333C7.91683 16.333 8.66683 15.583 8.66683 14.6663H5.3335C5.3335 15.583 6.0835 16.333 7.00016 16.333ZM12.0002 11.333V7.16634C12.0002 4.60801 10.6418 2.46634 8.25016 1.89967V1.33301C8.25016 0.641341 7.69183 0.0830078 7.00016 0.0830078C6.3085 0.0830078 5.75016 0.641341 5.75016 1.33301V1.89967C3.36683 2.46634 2.00016 4.59967 2.00016 7.16634V11.333L0.333496 12.9997V13.833H13.6668V12.9997L12.0002 11.333ZM10.3335 12.1663H3.66683V7.16634C3.66683 5.09967 4.92516 3.41634 7.00016 3.41634C9.07516 3.41634 10.3335 5.09967 10.3335 7.16634V12.1663Z" fill="white"/>
</svg>
