<svg width="19" height="13" viewBox="0 0 19 13" fill="none" xmlns="http://www.w3.org/2000/svg">
<path d="M9.16667 1.66667C12.325 1.66667 15.1417 3.44167 16.5167 6.25C15.1417 9.05833 12.325 10.8333 9.16667 10.8333C6.00833 10.8333 3.19167 9.05833 1.81667 6.25C3.19167 3.44167 6.00833 1.66667 9.16667 1.66667ZM9.16667 0C5 0 1.44167 2.59167 0 6.25C1.44167 9.90833 5 12.5 9.16667 12.5C13.3333 12.5 16.8917 9.90833 18.3333 6.25C16.8917 2.59167 13.3333 0 9.16667 0ZM9.16667 4.16667C10.3167 4.16667 11.25 5.1 11.25 6.25C11.25 7.4 10.3167 8.33333 9.16667 8.33333C8.01667 8.33333 7.08333 7.4 7.08333 6.25C7.08333 5.1 8.01667 4.16667 9.16667 4.16667ZM9.16667 2.5C7.1 2.5 5.41667 4.18333 5.41667 6.25C5.41667 8.31667 7.1 10 9.16667 10C11.2333 10 12.9167 8.31667 12.9167 6.25C12.9167 4.18333 11.2333 2.5 9.16667 2.5Z" fill="#9E9BA1"/>
</svg>
