<svg width="14" height="8" viewBox="0 0 14 8" fill="none" xmlns="http://www.w3.org/2000/svg">
    <path d="M1.59967 4.0013C1.59967 2.8613 2.52634 1.93464 3.66634 1.93464H6.33301V0.667969H3.66634C1.82634 0.667969 0.333008 2.1613 0.333008 4.0013C0.333008 5.8413 1.82634 7.33463 3.66634 7.33463H6.33301V6.06797H3.66634C2.52634 6.06797 1.59967 5.1413 1.59967 4.0013ZM4.33301 4.66797H9.66634V3.33464H4.33301V4.66797ZM10.333 0.667969H7.66634V1.93464H10.333C11.473 1.93464 12.3997 2.8613 12.3997 4.0013C12.3997 5.1413 11.473 6.06797 10.333 6.06797H7.66634V7.33463H10.333C12.173 7.33463 13.6663 5.8413 13.6663 4.0013C13.6663 2.1613 12.173 0.667969 10.333 0.667969Z" fill="#3185FC"/>
</svg>
