<svg width="21" height="21" viewBox="0 0 21 21" fill="none" xmlns="http://www.w3.org/2000/svg">
    <g clip-path="url(#clip0_2907_17199)">
        <path d="M7.16699 7.16666V5.5H13.8337V7.16666H7.16699ZM4.66699 18.8333C4.44598 18.8333 4.23402 18.7455 4.07774 18.5892C3.92146 18.433 3.83366 18.221 3.83366 18V3C3.83366 2.77899 3.92146 2.56702 4.07774 2.41074C4.23402 2.25446 4.44598 2.16667 4.66699 2.16667H17.167V10.0833C17.7858 10.3438 18.3509 10.7167 18.8337 11.1833V0.5H4.66699C4.00395 0.5 3.36807 0.763392 2.89923 1.23223C2.43038 1.70107 2.16699 2.33696 2.16699 3V18C2.16699 18.663 2.43038 19.2989 2.89923 19.7678C3.36807 20.2366 4.00395 20.5 4.66699 20.5H15.0837C14.3549 20.4999 13.6336 20.3522 12.9635 20.0657C12.2933 19.7793 11.6882 19.3601 11.1845 18.8333H4.66699ZM19.2862 20.4642L17.072 18.25C16.478 18.6291 15.7884 18.8314 15.0837 18.8333C14.342 18.8333 13.617 18.6134 13.0003 18.2013C12.3836 17.7893 11.9029 17.2036 11.6191 16.5184C11.3353 15.8332 11.261 15.0792 11.4057 14.3517C11.5504 13.6243 11.9076 12.9561 12.432 12.4317C12.9565 11.9072 13.6246 11.5501 14.3521 11.4054C15.0795 11.2607 15.8335 11.335 16.5187 11.6188C17.2039 11.9026 17.7896 12.3833 18.2017 12.9999C18.6137 13.6166 18.8337 14.3416 18.8337 15.0833C18.8318 15.788 18.6295 16.4776 18.2503 17.0717L20.4645 19.2858L19.2862 20.4642ZM15.0837 17.1667C15.4957 17.1667 15.8985 17.0445 16.2411 16.8156C16.5837 16.5866 16.8507 16.2613 17.0084 15.8806C17.1661 15.4999 17.2074 15.081 17.127 14.6769C17.0466 14.2728 16.8482 13.9015 16.5568 13.6102C16.2654 13.3188 15.8942 13.1204 15.4901 13.04C15.086 12.9596 14.6671 13.0009 14.2864 13.1586C13.9057 13.3163 13.5804 13.5833 13.3514 13.9259C13.1225 14.2685 13.0003 14.6713 13.0003 15.0833C13.0003 15.6359 13.2198 16.1658 13.6105 16.5565C14.0012 16.9472 14.5311 17.1667 15.0837 17.1667Z" fill="#3185FC"/>
    </g>
    <defs>
        <clipPath id="clip0_2907_17199">
            <rect width="20" height="20" fill="white" transform="translate(0.5 0.5)"/>
        </clipPath>
    </defs>
</svg>
