<svg width="33" height="32" viewBox="0 0 33 32" fill="none" xmlns="http://www.w3.org/2000/svg">
    <path fill-rule="evenodd" clip-rule="evenodd" d="M9.82812 1.09172C10.1214 0.245091 11.0457 -0.203473 11.8924 0.0898232C19.4225 2.69815 22.7227 8.45732 22.7227 12.3843V31.959H11.3613C10.4652 31.959 9.73872 31.2327 9.73872 30.3367C9.73872 29.4407 10.4652 28.7143 11.3613 28.7143H19.4777V12.3843C19.4777 10.069 17.2842 5.39132 10.8301 3.15573C9.9834 2.86244 9.53478 1.93835 9.82812 1.09172Z" fill="#3185FC"/>
    <path fill-rule="evenodd" clip-rule="evenodd" d="M12.8945 1.09172C12.6012 0.245091 11.677 -0.203473 10.8303 0.0898232C3.30016 2.69815 -8.96454e-05 8.45732 -8.96454e-05 12.3843V31.959H11.3614C12.2575 31.959 12.9839 31.2327 12.9839 30.3367C12.9839 29.4407 12.2575 28.7143 11.3614 28.7143H3.24498V12.3843C3.24498 10.069 5.4385 5.39132 11.8925 3.15573C12.7393 2.86244 13.1879 1.93835 12.8945 1.09172Z" fill="#3185FC"/>
    <path fill-rule="evenodd" clip-rule="evenodd" d="M19.5674 1.09172C19.8607 0.245091 20.7849 -0.203473 21.6316 0.0898232C29.1618 2.69815 32.462 8.45732 32.462 12.3843V31.959H21.1005C20.2044 31.959 19.478 31.2327 19.478 30.3367C19.478 29.4407 20.2044 28.7143 21.1005 28.7143H29.2169V12.3843C29.2169 10.069 27.0234 5.39132 20.5694 3.15573C19.7227 2.86244 19.274 1.93835 19.5674 1.09172Z" fill="#3185FC"/>
    <path fill-rule="evenodd" clip-rule="evenodd" d="M22.6348 1.09172C22.3414 0.245091 21.4172 -0.203473 20.5705 0.0898232C13.0404 2.69815 9.74014 8.45732 9.74014 12.3843V31.959H21.1016C21.9977 31.959 22.7242 31.2327 22.7242 30.3367C22.7242 29.4407 21.9977 28.7143 21.1016 28.7143H12.9852V12.3843C12.9852 10.069 15.1787 5.39132 21.6328 3.15573C22.4795 2.86244 22.9281 1.93835 22.6348 1.09172Z" fill="#3185FC"/>
</svg>
