<svg width="179" height="32" viewBox="0 0 179 32" fill="none" xmlns="http://www.w3.org/2000/svg">
    <path fill-rule="evenodd" clip-rule="evenodd" d="M9.82812 1.09172C10.1214 0.245091 11.0457 -0.203473 11.8924 0.0898232C19.4225 2.69815 22.7227 8.45732 22.7227 12.3843V31.959H11.3613C10.4652 31.959 9.73872 31.2327 9.73872 30.3367C9.73872 29.4407 10.4652 28.7143 11.3613 28.7143H19.4777V12.3843C19.4777 10.069 17.2842 5.39132 10.8301 3.15573C9.9834 2.86244 9.53478 1.93835 9.82812 1.09172Z" fill="#3185FC"/>
    <path fill-rule="evenodd" clip-rule="evenodd" d="M12.8945 1.09172C12.6012 0.245091 11.677 -0.203473 10.8303 0.0898232C3.30016 2.69815 -8.96454e-05 8.45732 -8.96454e-05 12.3843V31.959H11.3614C12.2575 31.959 12.9839 31.2327 12.9839 30.3367C12.9839 29.4407 12.2575 28.7143 11.3614 28.7143H3.24498V12.3843C3.24498 10.069 5.4385 5.39132 11.8925 3.15573C12.7393 2.86244 13.1879 1.93835 12.8945 1.09172Z" fill="#3185FC"/>
    <path fill-rule="evenodd" clip-rule="evenodd" d="M19.5674 1.09172C19.8607 0.245091 20.7849 -0.203473 21.6316 0.0898232C29.1618 2.69815 32.462 8.45732 32.462 12.3843V31.959H21.1005C20.2044 31.959 19.478 31.2327 19.478 30.3367C19.478 29.4407 20.2044 28.7143 21.1005 28.7143H29.2169V12.3843C29.2169 10.069 27.0234 5.39132 20.5694 3.15573C19.7227 2.86244 19.274 1.93835 19.5674 1.09172Z" fill="#3185FC"/>
    <path fill-rule="evenodd" clip-rule="evenodd" d="M22.6348 1.09172C22.3414 0.245091 21.4172 -0.203473 20.5705 0.0898232C13.0404 2.69815 9.74014 8.45732 9.74014 12.3843V31.959H21.1016C21.9977 31.959 22.7242 31.2327 22.7242 30.3367C22.7242 29.4407 21.9977 28.7143 21.1016 28.7143H12.9852V12.3843C12.9852 10.069 15.1787 5.39132 21.6328 3.15573C22.4795 2.86244 22.9281 1.93835 22.6348 1.09172Z" fill="#3185FC"/>
    <path d="M50.4858 9.57696V26.7477H47.2408V9.57696H41.2676V6.70559H56.459V9.57696H50.4858Z" fill="#3C3744"/>
    <path d="M62.2231 27.0923C61.1509 27.0923 60.1937 26.9104 59.3513 26.5467C58.509 26.183 57.791 25.6662 57.1975 24.9962C56.6041 24.3071 56.1446 23.4839 55.8191 22.5268C55.5128 21.5506 55.3596 20.469 55.3596 19.2822C55.3596 18.0954 55.5128 17.0234 55.8191 16.0663C56.1446 15.09 56.6041 14.2669 57.1975 13.5969C57.791 12.9077 58.509 12.3813 59.3513 12.0176C60.1937 11.6539 61.1509 11.4721 62.2231 11.4721C63.3143 11.4721 64.2715 11.6635 65.0948 12.0463C65.9371 12.4292 66.6359 12.9652 67.1911 13.6543C67.7463 14.3243 68.1579 15.1091 68.426 16.0088C68.7131 16.9085 68.8567 17.8752 68.8567 18.9089V20.0862H58.6047V20.5743C58.6047 21.7228 58.9397 22.6704 59.6098 23.417C60.299 24.1444 61.2754 24.5081 62.5389 24.5081C63.4579 24.5081 64.2333 24.3071 64.865 23.9051C65.4968 23.5031 66.0329 22.9575 66.4732 22.2684L68.3111 24.0774C67.7559 24.9962 66.9518 25.7332 65.8989 26.2883C64.8459 26.8243 63.6206 27.0923 62.2231 27.0923ZM62.2231 13.9127C61.687 13.9127 61.1892 14.0084 60.7298 14.1999C60.2894 14.3913 59.9065 14.6593 59.5811 15.0038C59.2748 15.3484 59.0354 15.76 58.8631 16.2385C58.6908 16.7171 58.6047 17.2435 58.6047 17.8178V18.0188H65.5542V17.7316C65.5542 16.5831 65.2575 15.6643 64.664 14.9751C64.0705 14.2669 63.2569 13.9127 62.2231 13.9127Z" fill="#3C3744"/>
    <path d="M71.1732 26.7477V11.8166H74.3033V14.286H74.4469C74.7724 13.482 75.2606 12.812 75.9115 12.276C76.5816 11.7401 77.491 11.4721 78.6396 11.4721C80.1712 11.4721 81.3582 11.9793 82.2006 12.9939C83.0621 13.9893 83.4928 15.4154 83.4928 17.2722V26.7477H80.3627V17.6742C80.3627 15.3388 79.4246 14.1711 77.5484 14.1711C77.1463 14.1711 76.7443 14.2286 76.3423 14.3434C75.9594 14.4391 75.6148 14.5923 75.3084 14.8028C75.0021 15.0134 74.7532 15.2814 74.5618 15.6068C74.3895 15.9323 74.3033 16.3151 74.3033 16.7554V26.7477H71.1732Z" fill="#3C3744"/>
    <path d="M96.0732 24.2784H95.9296C95.6042 25.1589 95.0681 25.848 94.3215 26.3457C93.594 26.8435 92.7324 27.0923 91.7369 27.0923C89.8416 27.0923 88.377 26.4127 87.3432 25.0536C86.3094 23.6754 85.7925 21.7516 85.7925 19.2822C85.7925 16.8128 86.3094 14.8986 87.3432 13.5394C88.377 12.1612 89.8416 11.4721 91.7369 11.4721C92.7324 11.4721 93.594 11.7209 94.3215 12.2186C95.0681 12.6972 95.6042 13.3863 95.9296 14.286H96.0732V5.49962H99.2034V26.7477H96.0732V24.2784ZM92.6846 24.3932C93.6418 24.3932 94.4459 24.1635 95.0968 23.7041C95.7478 23.2255 96.0732 22.6034 96.0732 21.8377V16.7267C96.0732 15.961 95.7478 15.3484 95.0968 14.889C94.4459 14.4104 93.6418 14.1711 92.6846 14.1711C91.5933 14.1711 90.7222 14.5253 90.0713 15.2336C89.4204 15.9227 89.0949 16.8415 89.0949 17.9901V20.5743C89.0949 21.7228 89.4204 22.6513 90.0713 23.3595C90.7222 24.0487 91.5933 24.3932 92.6846 24.3932Z" fill="#3C3744"/>
    <path d="M108.387 27.0923C107.315 27.0923 106.358 26.9104 105.515 26.5467C104.673 26.183 103.955 25.6662 103.362 24.9962C102.768 24.3071 102.309 23.4839 101.983 22.5268C101.677 21.5506 101.524 20.469 101.524 19.2822C101.524 18.0954 101.677 17.0234 101.983 16.0663C102.309 15.09 102.768 14.2669 103.362 13.5969C103.955 12.9077 104.673 12.3813 105.515 12.0176C106.358 11.6539 107.315 11.4721 108.387 11.4721C109.478 11.4721 110.436 11.6635 111.259 12.0463C112.101 12.4292 112.8 12.9652 113.355 13.6543C113.91 14.3243 114.322 15.1091 114.59 16.0088C114.877 16.9085 115.021 17.8752 115.021 18.9089V20.0862H104.769V20.5743C104.769 21.7228 105.104 22.6704 105.774 23.417C106.463 24.1444 107.439 24.5081 108.703 24.5081C109.622 24.5081 110.397 24.3071 111.029 23.9051C111.661 23.5031 112.197 22.9575 112.637 22.2684L114.475 24.0774C113.92 24.9962 113.116 25.7332 112.063 26.2883C111.01 26.8243 109.785 27.0923 108.387 27.0923ZM108.387 13.9127C107.851 13.9127 107.353 14.0084 106.894 14.1999C106.453 14.3913 106.071 14.6593 105.745 15.0038C105.439 15.3484 105.199 15.76 105.027 16.2385C104.855 16.7171 104.769 17.2435 104.769 17.8178V18.0188H111.718V17.7316C111.718 16.5831 111.422 15.6643 110.828 14.9751C110.235 14.2669 109.421 13.9127 108.387 13.9127Z" fill="#3C3744"/>
    <path d="M117.337 26.7477V11.8166H120.467V14.688H120.611C120.822 13.9223 121.262 13.2523 121.932 12.678C122.602 12.1038 123.531 11.8166 124.717 11.8166H125.55V14.8316H124.315C123.071 14.8316 122.114 15.0326 121.444 15.4346C120.793 15.8365 120.467 16.43 120.467 17.2148V26.7477H117.337Z" fill="#3C3744"/>
    <path d="M126.806 27.0923C126.098 27.0923 125.571 26.9104 125.227 26.5467C124.882 26.1639 124.71 25.6949 124.71 25.1398V24.7091C124.71 24.1539 124.882 23.6945 125.227 23.3308C125.571 22.948 126.098 22.7565 126.806 22.7565C127.515 22.7565 128.041 22.948 128.386 23.3308C128.73 23.6945 128.903 24.1539 128.903 24.7091V25.1398C128.903 25.6949 128.73 26.1639 128.386 26.5467C128.041 26.9104 127.515 27.0923 126.806 27.0923Z" fill="#3C3744"/>
    <path d="M143.144 26.7477C142.321 26.7477 141.689 26.518 141.249 26.0586C140.808 25.58 140.54 24.9771 140.445 24.2496H140.301C140.014 25.1876 139.487 25.8959 138.722 26.3745C137.956 26.853 137.027 27.0923 135.936 27.0923C134.385 27.0923 133.189 26.6903 132.346 25.8863C131.523 25.0823 131.112 24.0008 131.112 22.6417C131.112 21.1486 131.648 20.0287 132.72 19.2822C133.811 18.5356 135.4 18.1623 137.487 18.1623H140.186V16.8989C140.186 15.9801 139.937 15.2718 139.44 14.7741C138.942 14.2764 138.166 14.0276 137.113 14.0276C136.233 14.0276 135.515 14.219 134.96 14.6019C134.404 14.9847 133.935 15.4728 133.553 16.0663L131.686 14.3721C132.184 13.5299 132.882 12.8407 133.782 12.3048C134.682 11.7496 135.859 11.4721 137.314 11.4721C139.248 11.4721 140.732 11.9219 141.766 12.8216C142.799 13.7213 143.316 15.0134 143.316 16.698V24.1922H144.896V26.7477H143.144ZM136.826 24.7091C137.803 24.7091 138.607 24.4985 139.239 24.0774C139.87 23.6371 140.186 23.0532 140.186 22.3258V20.1723H137.544C135.381 20.1723 134.299 20.8423 134.299 22.1823V22.6991C134.299 23.3691 134.519 23.8764 134.96 24.2209C135.419 24.5464 136.041 24.7091 136.826 24.7091Z" fill="#3C3744"/>
    <path d="M151.553 27.0923C150.137 27.0923 148.95 26.8435 147.992 26.3457C147.035 25.848 146.202 25.1589 145.494 24.2784L147.504 22.4407C148.059 23.1107 148.672 23.6371 149.342 24.0199C150.031 24.3836 150.826 24.5655 151.726 24.5655C152.645 24.5655 153.324 24.3932 153.764 24.0487C154.224 23.6849 154.454 23.1872 154.454 22.5555C154.454 22.077 154.291 21.675 153.965 21.3496C153.659 21.005 153.114 20.7849 152.329 20.6892L150.95 20.5169C149.419 20.3254 148.212 19.8852 147.332 19.196C146.47 18.4878 146.04 17.4445 146.04 16.0663C146.04 15.3388 146.174 14.6976 146.442 14.1424C146.71 13.5682 147.083 13.0896 147.562 12.7068C148.059 12.3048 148.643 11.9985 149.313 11.7879C150.003 11.5773 150.759 11.4721 151.582 11.4721C152.922 11.4721 154.013 11.6826 154.856 12.1038C155.717 12.5249 156.483 13.1087 157.153 13.8553L155.229 15.693C154.846 15.2336 154.339 14.8411 153.707 14.5157C153.094 14.1711 152.386 13.9989 151.582 13.9989C150.72 13.9989 150.079 14.1711 149.658 14.5157C149.256 14.8603 149.055 15.3101 149.055 15.8653C149.055 16.4395 149.237 16.8702 149.6 17.1574C149.964 17.4445 150.548 17.6551 151.352 17.7891L152.731 17.9614C154.377 18.2102 155.574 18.6983 156.32 19.4257C157.086 20.134 157.469 21.0911 157.469 22.2971C157.469 23.0245 157.325 23.6849 157.038 24.2784C156.77 24.8526 156.378 25.3503 155.861 25.7715C155.344 26.1926 154.722 26.518 153.994 26.7477C153.267 26.9774 152.453 27.0923 151.553 27.0923Z" fill="#3C3744"/>
    <path d="M161.436 9.14626C160.785 9.14626 160.306 8.99312 160 8.68684C159.713 8.38056 159.569 7.98814 159.569 7.50958V7.02144C159.569 6.54288 159.713 6.15046 160 5.84418C160.306 5.5379 160.785 5.38477 161.436 5.38477C162.087 5.38477 162.556 5.5379 162.843 5.84418C163.13 6.15046 163.274 6.54288 163.274 7.02144V7.50958C163.274 7.98814 163.13 8.38056 162.843 8.68684C162.556 8.99312 162.087 9.14626 161.436 9.14626ZM159.857 11.8166H162.987V26.7477H159.857V11.8166Z" fill="#3C3744"/>
    <path d="M177.249 26.7477C176.426 26.7477 175.794 26.518 175.354 26.0586C174.913 25.58 174.645 24.9771 174.55 24.2496H174.406C174.119 25.1876 173.592 25.8959 172.827 26.3745C172.061 26.853 171.132 27.0923 170.041 27.0923C168.49 27.0923 167.294 26.6903 166.451 25.8863C165.628 25.0823 165.217 24.0008 165.217 22.6417C165.217 21.1486 165.753 20.0287 166.825 19.2822C167.916 18.5356 169.505 18.1623 171.592 18.1623H174.291V16.8989C174.291 15.9801 174.042 15.2718 173.545 14.7741C173.047 14.2764 172.271 14.0276 171.218 14.0276C170.338 14.0276 169.62 14.219 169.065 14.6019C168.509 14.9847 168.04 15.4728 167.658 16.0663L165.791 14.3721C166.289 13.5299 166.987 12.8407 167.887 12.3048C168.787 11.7496 169.964 11.4721 171.419 11.4721C173.353 11.4721 174.837 11.9219 175.871 12.8216C176.904 13.7213 177.421 15.0134 177.421 16.698V24.1922H179.001V26.7477H177.249ZM170.931 24.7091C171.908 24.7091 172.712 24.4985 173.344 24.0774C173.975 23.6371 174.291 23.0532 174.291 22.3258V20.1723H171.649C169.486 20.1723 168.404 20.8423 168.404 22.1823V22.6991C168.404 23.3691 168.624 23.8764 169.065 24.2209C169.524 24.5464 170.146 24.7091 170.931 24.7091Z" fill="#3C3744"/>
</svg>
